<svg width="474" height="121" viewBox="0 0 474 121" fill="none" xmlns="http://www.w3.org/2000/svg">
<path d="M152.2 85H140.665L158.24 34.0909H172.111L189.661 85H178.126L165.374 45.7244H164.977L152.2 85ZM151.479 64.9893H178.723V73.3913H151.479V64.9893ZM195.589 99.3182V46.8182H206.029V53.2315H206.502C206.966 52.2041 207.637 51.16 208.515 50.0994C209.41 49.0223 210.57 48.1274 211.995 47.4148C213.437 46.6856 215.227 46.321 217.365 46.321C220.149 46.321 222.717 47.0502 225.071 48.5085C227.424 49.9503 229.305 52.1295 230.713 55.0462C232.122 57.9463 232.826 61.5838 232.826 65.9588C232.826 70.2178 232.139 73.8139 230.763 76.7472C229.404 79.6638 227.548 81.8762 225.195 83.3842C222.858 84.8757 220.24 85.6214 217.34 85.6214C215.285 85.6214 213.537 85.2817 212.095 84.6023C210.67 83.9228 209.501 83.0694 208.59 82.0419C207.678 80.9979 206.982 79.9455 206.502 78.8849H206.179V99.3182H195.589ZM205.955 65.9091C205.955 68.1794 206.27 70.1598 206.9 71.8501C207.529 73.5405 208.441 74.858 209.634 75.8026C210.827 76.7306 212.277 77.1946 213.984 77.1946C215.708 77.1946 217.166 76.7223 218.359 75.7777C219.552 74.8165 220.455 73.4908 221.069 71.8004C221.698 70.0935 222.013 68.1297 222.013 65.9091C222.013 63.705 221.707 61.7661 221.093 60.0923C220.48 58.4186 219.577 57.1094 218.384 56.1648C217.191 55.2202 215.724 54.7479 213.984 54.7479C212.261 54.7479 210.802 55.2036 209.609 56.1151C208.432 57.0265 207.529 58.3191 206.9 59.9929C206.27 61.6667 205.955 63.6387 205.955 65.9091ZM239.886 99.3182V46.8182H250.326V53.2315H250.799C251.263 52.2041 251.934 51.16 252.812 50.0994C253.707 49.0223 254.867 48.1274 256.292 47.4148C257.734 46.6856 259.524 46.321 261.662 46.321C264.446 46.321 267.014 47.0502 269.368 48.5085C271.721 49.9503 273.602 52.1295 275.01 55.0462C276.419 57.9463 277.123 61.5838 277.123 65.9588C277.123 70.2178 276.435 73.8139 275.06 76.7472C273.701 79.6638 271.845 81.8762 269.492 83.3842C267.155 84.8757 264.537 85.6214 261.637 85.6214C259.582 85.6214 257.833 85.2817 256.392 84.6023C254.967 83.9228 253.798 83.0694 252.887 82.0419C251.975 80.9979 251.279 79.9455 250.799 78.8849H250.475V99.3182H239.886ZM250.252 65.9091C250.252 68.1794 250.567 70.1598 251.196 71.8501C251.826 73.5405 252.738 74.858 253.931 75.8026C255.124 76.7306 256.574 77.1946 258.281 77.1946C260.004 77.1946 261.463 76.7223 262.656 75.7777C263.849 74.8165 264.752 73.4908 265.365 71.8004C265.995 70.0935 266.31 68.1297 266.31 65.9091C266.31 63.705 266.003 61.7661 265.39 60.0923C264.777 58.4186 263.874 57.1094 262.681 56.1648C261.488 55.2202 260.021 54.7479 258.281 54.7479C256.557 54.7479 255.099 55.2036 253.906 56.1151C252.729 57.0265 251.826 58.3191 251.196 59.9929C250.567 61.6667 250.252 63.6387 250.252 65.9091ZM301.434 85.7457C297.573 85.7457 294.234 84.9254 291.417 83.2848C288.616 81.6276 286.453 79.3241 284.929 76.3743C283.404 73.4079 282.642 69.9692 282.642 66.0582C282.642 62.1141 283.404 58.6671 284.929 55.7173C286.453 52.7509 288.616 50.4474 291.417 48.8068C294.234 47.1496 297.573 46.321 301.434 46.321C305.296 46.321 308.627 47.1496 311.427 48.8068C314.244 50.4474 316.415 52.7509 317.94 55.7173C319.465 58.6671 320.227 62.1141 320.227 66.0582C320.227 69.9692 319.465 73.4079 317.94 76.3743C316.415 79.3241 314.244 81.6276 311.427 83.2848C308.627 84.9254 305.296 85.7457 301.434 85.7457ZM301.484 77.5426C303.241 77.5426 304.707 77.0455 305.884 76.0511C307.06 75.0402 307.947 73.6648 308.544 71.9247C309.157 70.1847 309.463 68.2043 309.463 65.9837C309.463 63.763 309.157 61.7827 308.544 60.0426C307.947 58.3026 307.06 56.9271 305.884 55.9162C304.707 54.9053 303.241 54.3999 301.484 54.3999C299.711 54.3999 298.219 54.9053 297.01 55.9162C295.816 56.9271 294.913 58.3026 294.3 60.0426C293.703 61.7827 293.405 63.763 293.405 65.9837C293.405 68.2043 293.703 70.1847 294.3 71.9247C294.913 73.6648 295.816 75.0402 297.01 76.0511C298.219 77.0455 299.711 77.5426 301.484 77.5426ZM327.113 85V46.8182H337.702V85H327.113ZM332.432 41.8963C330.858 41.8963 329.507 41.3743 328.38 40.3303C327.27 39.2696 326.715 38.0019 326.715 36.527C326.715 35.0687 327.27 33.8175 328.38 32.7734C329.507 31.7128 330.858 31.1825 332.432 31.1825C334.007 31.1825 335.349 31.7128 336.459 32.7734C337.586 33.8175 338.15 35.0687 338.15 36.527C338.15 38.0019 337.586 39.2696 336.459 40.3303C335.349 41.3743 334.007 41.8963 332.432 41.8963ZM356.774 62.9261V85H346.185V46.8182H356.277V53.5547H356.725C357.57 51.334 358.987 49.5774 360.975 48.2848C362.964 46.9756 365.375 46.321 368.209 46.321C370.86 46.321 373.172 46.901 375.144 48.0611C377.116 49.2211 378.649 50.8783 379.743 53.0327C380.837 55.1705 381.384 57.7225 381.384 60.6889V85H370.794V62.5781C370.811 60.2415 370.214 58.4186 369.004 57.1094C367.795 55.7836 366.129 55.1207 364.008 55.1207C362.583 55.1207 361.323 55.4273 360.23 56.0405C359.152 56.6536 358.307 57.5485 357.694 58.7251C357.097 59.8852 356.791 61.2855 356.774 62.9261ZM410.039 46.8182V54.7727H387.045V46.8182H410.039ZM392.265 37.6705H402.855V73.267C402.855 74.2448 403.004 75.0071 403.302 75.554C403.6 76.0843 404.015 76.4571 404.545 76.6726C405.092 76.888 405.722 76.9957 406.434 76.9957C406.931 76.9957 407.429 76.9543 407.926 76.8714C408.423 76.772 408.804 76.6974 409.069 76.6477L410.735 84.5277C410.204 84.6934 409.459 84.884 408.498 85.0994C407.536 85.3314 406.368 85.4723 404.993 85.522C402.44 85.6214 400.203 85.2817 398.281 84.5028C396.375 83.724 394.892 82.5142 393.831 80.8736C392.771 79.233 392.249 77.1615 392.265 74.6591V37.6705ZM428.347 34.0909V85H417.757V34.0909H428.347ZM443.367 99.3182C442.025 99.3182 440.765 99.2105 439.589 98.995C438.429 98.7962 437.467 98.5393 436.705 98.2244L439.091 90.3196C440.334 90.7008 441.453 90.9079 442.447 90.9411C443.458 90.9742 444.328 90.7422 445.057 90.245C445.803 89.7479 446.408 88.9027 446.872 87.7095L447.493 86.0938L433.797 46.8182H444.933L452.838 74.858H453.236L461.215 46.8182H472.426L457.586 89.1264C456.873 91.1813 455.904 92.9711 454.677 94.4957C453.468 96.0369 451.935 97.2218 450.079 98.0504C448.223 98.8956 445.985 99.3182 443.367 99.3182Z" fill="white"/>
<rect width="121" height="121" rx="30" fill="white"/>
<path d="M57.0621 38.9378C75.5001 31.6048 95.6641 37.3958 104.82 46.2628C106.804 48.1838 108.489 50.1328 109.932 52.0698C110.755 47.5218 110.822 42.9918 110.03 38.6108C107.137 22.6148 92.0461 13.5528 78.5171 18.2338C65.0491 22.8938 59.7961 31.9508 59.7961 31.9508C59.7961 31.9508 54.5431 22.8938 41.0751 18.2338C27.5451 13.5528 12.4541 22.6158 9.56214 38.6108C7.42714 50.4158 11.4701 63.3038 20.0491 74.6928C21.8561 75.2998 23.7501 75.7558 25.7561 76.0188C37.7741 77.5988 42.0941 74.3848 47.1711 72.2328C50.5421 70.8048 53.0781 72.4258 52.9551 73.5618C52.7641 75.3228 46.1191 78.3318 47.5441 78.9638C53.1701 81.4598 60.0981 81.4808 65.3191 77.0218C71.8071 71.4818 74.2341 75.2688 74.2341 75.2688C74.2341 75.2688 71.0121 83.4878 61.3101 87.5688C53.2151 90.9738 44.7331 91.8128 36.9821 90.9408C43.6671 95.6658 51.3431 99.6268 59.7961 102.454C83.9631 94.3698 101.816 77.0518 108.11 58.9458C103.846 54.7388 98.6161 52.1308 92.3821 51.1858C80.3971 49.3688 76.0151 52.4978 70.8961 54.5488C67.4971 55.9108 64.9941 54.2398 65.1401 53.1058C65.3651 51.3488 72.0691 48.4718 70.6561 47.8108C65.0811 45.2048 58.1541 45.0468 52.8461 49.4018C46.2501 54.8128 43.8981 50.9788 43.8981 50.9788C43.8981 50.9788 47.2811 42.8268 57.0621 38.9378ZM52.4751 61.4668H57.1311V56.8108H62.4591V61.4668H67.1151V66.7948H62.4591V71.4508H57.1311V66.7948H52.4751V61.4668Z" fill="url(#paint0_linear_1002_5)"/>
<path d="M52.4752 61.4668H57.1312V56.8108H62.4592V61.4668H67.1152V66.7948H62.4941C69.3591 70.2638 81.9672 75.4248 97.1182 77.7208C102.104 71.8228 105.853 65.4358 108.109 58.9458C103.845 54.7388 98.6152 52.1308 92.3812 51.1858C80.3962 49.3688 76.0141 52.4978 70.8951 54.5488C67.4962 55.9108 64.9932 54.2398 65.1392 53.1058C65.3642 51.3488 72.0682 48.4718 70.6552 47.8108C65.0802 45.2048 58.1532 45.0468 52.8452 49.4018C46.2492 54.8128 43.8972 50.9788 43.8972 50.9788C43.8972 50.9788 47.2812 42.8258 57.0611 38.9358C75.4991 31.6028 95.6632 37.3938 104.819 46.2608C106.803 48.1818 108.488 50.1308 109.931 52.0678C110.754 47.5198 110.821 42.9898 110.029 38.6088C107.136 22.6128 92.0452 13.5508 78.5162 18.2318C65.0481 22.8918 59.7952 31.9488 59.7952 31.9488C59.7952 31.9488 54.5422 22.8918 41.0742 18.2318C33.3472 15.5578 25.1132 17.3738 18.9312 22.3978C21.8352 28.6158 25.2372 34.4258 34.9282 46.1108C42.8072 55.6128 52.4752 61.4668 52.4752 61.4668Z" fill="url(#paint1_linear_1002_5)"/>
<path opacity="0.31" d="M94.8292 23.9818C82.1062 17.5898 68.9752 27.5358 64.8102 32.7878C71.9932 31.2748 78.2782 30.4988 86.2312 32.1698C97.9962 34.6418 102.399 38.8898 107.652 45.1658C106.724 33.5368 99.3792 26.2678 94.8292 23.9818Z" fill="url(#paint2_linear_1002_5)"/>
<defs>
<linearGradient id="paint0_linear_1002_5" x1="22.5403" y1="85.6303" x2="97.1902" y2="10.9805" gradientUnits="userSpaceOnUse">
<stop stop-color="#0076C1"/>
<stop offset="0.0737" stop-color="#0B82C6"/>
<stop offset="0.2766" stop-color="#269ED3"/>
<stop offset="0.4546" stop-color="#36AFDA"/>
<stop offset="0.587" stop-color="#3CB5DD"/>
</linearGradient>
<linearGradient id="paint1_linear_1002_5" x1="22.2861" y1="85.7994" x2="97.1592" y2="10.9263" gradientUnits="userSpaceOnUse">
<stop stop-color="#00A482"/>
<stop offset="1" stop-color="#79DD83"/>
</linearGradient>
<linearGradient id="paint2_linear_1002_5" x1="84.6021" y1="40.3113" x2="100.128" y2="25.9443" gradientUnits="userSpaceOnUse">
<stop stop-color="#00A482"/>
<stop offset="1" stop-color="#79DD83"/>
</linearGradient>
</defs>
</svg>
